<svg width="47" height="47" viewBox="0 0 47 47" fill="none" xmlns="http://www.w3.org/2000/svg">
<path fill-rule="evenodd" clip-rule="evenodd" d="M23.5 5.875C18.713 5.875 18.1138 5.89498 16.2338 5.98075C14.3573 6.06652 13.0754 6.36497 11.9544 6.8009C10.7794 7.2427 9.71372 7.93595 8.83247 8.83365C7.93621 9.71388 7.24253 10.7789 6.79972 11.9544C6.36615 13.0754 6.06652 14.3585 5.98075 16.235C5.89615 18.1138 5.875 18.7119 5.875 23.5C5.875 28.2881 5.89498 28.8862 5.98075 30.7662C6.06652 32.6427 6.36497 33.9246 6.8009 35.0455C7.2427 36.2205 7.93595 37.2863 8.83365 38.1675C9.71391 39.0638 10.7789 39.7574 11.9544 40.2003C13.0754 40.635 14.3573 40.9335 16.2338 41.0192C18.1138 41.105 18.713 41.125 23.5 41.125C28.2869 41.125 28.8862 41.105 30.7662 41.0192C32.6427 40.9335 33.9246 40.635 35.0455 40.1991C36.2205 39.7573 37.2863 39.064 38.1675 38.1663C39.0638 37.2861 39.7575 36.2211 40.2003 35.0455C40.635 33.9246 40.9335 32.6427 41.0192 30.7662C41.105 28.8862 41.125 28.2869 41.125 23.5C41.125 18.713 41.105 18.1138 41.0192 16.2338C40.9335 14.3573 40.635 13.0754 40.1991 11.9544C39.7566 10.7784 39.0629 9.71293 38.1663 8.83247C37.2861 7.93621 36.2211 7.24253 35.0455 6.79972C33.9246 6.36615 32.6415 6.06652 30.765 5.98075C28.8862 5.89615 28.2881 5.875 23.5 5.875ZM23.5 9.05102C28.2059 9.05102 28.764 9.06865 30.6228 9.15325C32.3407 9.23197 33.2736 9.5175 33.8952 9.76072C34.7177 10.0791 35.3052 10.4622 35.9221 11.0779C36.539 11.6948 36.9208 12.2823 37.2393 13.1048C37.4813 13.7263 37.768 14.6593 37.8467 16.3771C37.9313 18.236 37.949 18.7941 37.949 23.5C37.949 28.2059 37.9313 28.764 37.8467 30.6228C37.768 32.3407 37.4825 33.2736 37.2393 33.8952C36.9572 34.6608 36.5071 35.3534 35.9221 35.9221C35.3535 36.5072 34.6609 36.9573 33.8952 37.2393C33.2736 37.4813 32.3407 37.768 30.6228 37.8467C28.764 37.9313 28.207 37.949 23.5 37.949C18.7929 37.949 18.236 37.9313 16.3771 37.8467C14.6593 37.768 13.7263 37.4825 13.1048 37.2393C12.3392 36.9572 11.6466 36.5071 11.0779 35.9221C10.493 35.3533 10.0429 34.6608 9.76072 33.8952C9.51867 33.2736 9.23197 32.3407 9.15325 30.6228C9.06865 28.764 9.05102 28.2059 9.05102 23.5C9.05102 18.7941 9.06865 18.236 9.15325 16.3771C9.23197 14.6593 9.5175 13.7263 9.76072 13.1048C10.0791 12.2823 10.4622 11.6948 11.0779 11.0779C11.6465 10.4928 12.3392 10.0427 13.1048 9.76072C13.7263 9.51867 14.6593 9.23197 16.3771 9.15325C18.236 9.06865 18.7941 9.05102 23.5 9.05102Z" fill="#203E68"/>
<path fill-rule="evenodd" clip-rule="evenodd" d="M23.4997 29.3809C22.7274 29.3809 21.9627 29.2288 21.2492 28.9332C20.5357 28.6377 19.8874 28.2045 19.3413 27.6584C18.7952 27.1123 18.362 26.464 18.0665 25.7505C17.7709 25.037 17.6188 24.2723 17.6188 23.5C17.6188 22.7277 17.7709 21.963 18.0665 21.2495C18.362 20.536 18.7952 19.8877 19.3413 19.3416C19.8874 18.7955 20.5357 18.3623 21.2492 18.0668C21.9627 17.7713 22.7274 17.6191 23.4997 17.6191C25.0594 17.6191 26.5552 18.2387 27.6581 19.3416C28.761 20.4445 29.3806 21.9403 29.3806 23.5C29.3806 25.0597 28.761 26.5555 27.6581 27.6584C26.5552 28.7613 25.0594 29.3809 23.4997 29.3809ZM23.4997 14.4408C21.097 14.4408 18.7928 15.3952 17.0938 17.0942C15.3949 18.7931 14.4404 21.0974 14.4404 23.5C14.4404 25.9027 15.3949 28.2069 17.0938 29.9059C18.7928 31.6048 21.097 32.5593 23.4997 32.5593C25.9023 32.5593 28.2066 31.6048 29.9055 29.9059C31.6045 28.2069 32.5589 25.9027 32.5589 23.5C32.5589 21.0974 31.6045 18.7931 29.9055 17.0942C28.2066 15.3952 25.9023 14.4408 23.4997 14.4408ZM35.1944 14.2763C35.1944 14.8442 34.9688 15.3889 34.5672 15.7905C34.1656 16.1921 33.621 16.4177 33.053 16.4177C32.4851 16.4177 31.9404 16.1921 31.5388 15.7905C31.1372 15.3889 30.9116 14.8442 30.9116 14.2763C30.9116 13.7083 31.1372 13.1636 31.5388 12.762C31.9404 12.3604 32.4851 12.1348 33.053 12.1348C33.621 12.1348 34.1656 12.3604 34.5672 12.762C34.9688 13.1636 35.1944 13.7083 35.1944 14.2763Z" fill="#203E68"/>
</svg>
