<svg width="51" height="51" viewBox="0 0 51 51" fill="none" xmlns="http://www.w3.org/2000/svg">
<path fill-rule="evenodd" clip-rule="evenodd" d="M25.5 6.375C20.3056 6.375 19.6554 6.39668 17.6154 6.48975C15.5792 6.58282 14.1882 6.90667 12.9718 7.3797C11.6968 7.8591 10.5404 8.61135 9.58417 9.58545C8.61163 10.5406 7.85892 11.6962 7.37842 12.9718C6.90795 14.1882 6.58282 15.5805 6.48975 17.6167C6.39795 19.6554 6.375 20.3044 6.375 25.5C6.375 30.6956 6.39668 31.3446 6.48975 33.3846C6.58282 35.4208 6.90667 36.8118 7.3797 38.0281C7.8591 39.3031 8.61135 40.4596 9.58545 41.4158C10.5406 42.3883 11.6962 43.141 12.9718 43.6216C14.1882 44.0933 15.5792 44.4172 17.6154 44.5102C19.6554 44.6033 20.3056 44.625 25.5 44.625C30.6943 44.625 31.3446 44.6033 33.3846 44.5102C35.4208 44.4172 36.8118 44.0933 38.0281 43.6203C39.3031 43.1409 40.4596 42.3886 41.4158 41.4145C42.3884 40.4594 43.1411 39.3038 43.6216 38.0281C44.0933 36.8118 44.4172 35.4208 44.5102 33.3846C44.6033 31.3446 44.625 30.6943 44.625 25.5C44.625 20.3056 44.6033 19.6554 44.5102 17.6154C44.4172 15.5792 44.0933 14.1882 43.6203 12.9718C43.1402 11.6957 42.3874 10.5396 41.4145 9.58417C40.4594 8.61163 39.3038 7.85892 38.0281 7.37842C36.8118 6.90795 35.4195 6.58282 33.3833 6.48975C31.3446 6.39795 30.6956 6.375 25.5 6.375ZM25.5 9.82133C30.6064 9.82133 31.212 9.84045 33.229 9.93225C35.0931 10.0177 36.1054 10.3275 36.7799 10.5914C37.6724 10.9369 38.3099 11.3526 38.9793 12.0207C39.6487 12.6901 40.0631 13.3276 40.4086 14.2201C40.6712 14.8945 40.9823 15.9069 41.0677 17.7709C41.1595 19.788 41.1787 20.3936 41.1787 25.5C41.1787 30.6064 41.1595 31.212 41.0677 33.229C40.9823 35.0931 40.6725 36.1054 40.4086 36.7799C40.1025 37.6106 39.6141 38.3622 38.9793 38.9793C38.3623 39.6142 37.6107 40.1026 36.7799 40.4086C36.1054 40.6712 35.0931 40.9823 33.229 41.0677C31.212 41.1595 30.6076 41.1787 25.5 41.1787C20.3923 41.1787 19.788 41.1595 17.7709 41.0677C15.9069 40.9823 14.8945 40.6725 14.2201 40.4086C13.3894 40.1025 12.6378 39.6141 12.0207 38.9793C11.386 38.3621 10.8976 37.6106 10.5914 36.7799C10.3288 36.1054 10.0177 35.0931 9.93225 33.229C9.84045 31.212 9.82133 30.6064 9.82133 25.5C9.82133 20.3936 9.84045 19.788 9.93225 17.7709C10.0177 15.9069 10.3275 14.8945 10.5914 14.2201C10.9369 13.3276 11.3526 12.6901 12.0207 12.0207C12.6377 11.3858 13.3893 10.8974 14.2201 10.5914C14.8945 10.3288 15.9069 10.0177 17.7709 9.93225C19.788 9.84045 20.3936 9.82133 25.5 9.82133V9.82133Z" fill="#203E68"/>
<path fill-rule="evenodd" clip-rule="evenodd" d="M25.5002 31.8814C24.6622 31.8814 23.8323 31.7163 23.0581 31.3956C22.2839 31.0749 21.5804 30.6049 20.9879 30.0123C20.3953 29.4197 19.9252 28.7163 19.6045 27.942C19.2839 27.1678 19.1188 26.338 19.1188 25.5C19.1188 24.662 19.2839 23.8322 19.6045 23.0579C19.9252 22.2837 20.3953 21.5802 20.9879 20.9877C21.5804 20.3951 22.2839 19.9251 23.0581 19.6044C23.8323 19.2837 24.6622 19.1186 25.5002 19.1186C27.1926 19.1186 28.8157 19.7909 30.0125 20.9877C31.2092 22.1844 31.8815 23.8075 31.8815 25.5C31.8815 27.1924 31.2092 28.8156 30.0125 30.0123C28.8157 31.209 27.1926 31.8814 25.5002 31.8814V31.8814ZM25.5002 15.6697C22.893 15.6697 20.3927 16.7054 18.5491 18.5489C16.7056 20.3925 15.6699 22.8928 15.6699 25.5C15.6699 28.1071 16.7056 30.6075 18.5491 32.451C20.3927 34.2945 22.893 35.3302 25.5002 35.3302C28.1073 35.3302 30.6077 34.2945 32.4512 32.451C34.2947 30.6075 35.3304 28.1071 35.3304 25.5C35.3304 22.8928 34.2947 20.3925 32.4512 18.5489C30.6077 16.7054 28.1073 15.6697 25.5002 15.6697V15.6697ZM38.1902 15.4912C38.1902 16.1075 37.9454 16.6985 37.5097 17.1343C37.0739 17.5701 36.4828 17.8149 35.8666 17.8149C35.2503 17.8149 34.6592 17.5701 34.2235 17.1343C33.7877 16.6985 33.5429 16.1075 33.5429 15.4912C33.5429 14.8749 33.7877 14.2839 34.2235 13.8481C34.6592 13.4124 35.2503 13.1675 35.8666 13.1675C36.4828 13.1675 37.0739 13.4124 37.5097 13.8481C37.9454 14.2839 38.1902 14.8749 38.1902 15.4912" fill="#203E68"/>
</svg>
