<svg width="144" height="69" viewBox="0 0 144 69" fill="none" xmlns="http://www.w3.org/2000/svg">
<path d="M127.93 69H17.08L16.92 67.68C16.14 61.09 9.60999 55.79 1.37 55.09L0 54.97V13.04L1.37 12.92C9.18999 12.25 15.52 7.44 16.76 1.21L17 0H127L127.24 1.21C128.48 7.44 134.81 12.25 142.63 12.92L144 13.04V55.03L142.69 55.2C134.83 56.22 128.82 61.35 128.08 67.68L127.92 69H127.93ZM19.68 66H125.33C126.77 59.29 132.95 53.92 141.01 52.43V15.75C132.99 14.6 126.51 9.57 124.6 3H19.41C17.5 9.57 11.02 14.61 3 15.75V52.25C11.46 53.46 18.17 59 19.68 66Z" fill="#E35F59"/>
<path d="M31.8281 39.8301V28.5801H36.3881C37.2081 28.5801 37.8981 28.7001 38.4481 28.9401C38.9981 29.1801 39.4181 29.5101 39.6981 29.9401C39.9781 30.3701 40.1181 30.8701 40.1181 31.4301C40.1181 31.8601 40.0281 32.2401 39.8581 32.5801C39.6881 32.9101 39.4481 33.1901 39.1381 33.4101C38.8281 33.6301 38.4781 33.7801 38.0781 33.8701V33.9801C38.5181 34.0001 38.9281 34.1301 39.3081 34.3501C39.6881 34.5701 39.9881 34.8801 40.2181 35.2801C40.4481 35.6801 40.5581 36.1501 40.5581 36.6901C40.5581 37.2901 40.4081 37.8301 40.1081 38.3101C39.8081 38.7901 39.3781 39.1601 38.8081 39.4301C38.2381 39.7001 37.5581 39.8401 36.7481 39.8401H31.8381L31.8281 39.8301ZM34.4681 33.2001H35.9281C36.2181 33.2001 36.4681 33.1501 36.6981 33.0501C36.9181 32.9501 37.0981 32.8101 37.2281 32.6201C37.3581 32.4301 37.4181 32.2101 37.4181 31.9401C37.4181 31.5601 37.2881 31.2701 37.0281 31.0501C36.7681 30.8301 36.4181 30.7301 35.9781 30.7301H34.4681V33.2001ZM34.4681 37.6301H36.0981C36.6681 37.6301 37.0981 37.5201 37.3681 37.3001C37.6381 37.0801 37.7781 36.7601 37.7781 36.3701C37.7781 36.0801 37.7081 35.8301 37.5781 35.6201C37.4481 35.4101 37.2581 35.2501 37.0181 35.1301C36.7781 35.0101 36.4881 34.9601 36.1481 34.9601H34.4681V37.6401V37.6301Z" fill="#E35F59"/>
<path d="M44.4681 28.5801V39.8301H41.8281V28.5801H44.4681Z" fill="#E35F59"/>
<path d="M46.1184 39.8301V28.5801H48.7584V37.6201H53.3084V39.8301H46.1084H46.1184Z" fill="#E35F59"/>
<path d="M54.6877 39.8301V28.5801H57.3277V37.6201H61.8777V39.8301H54.6777H54.6877Z" fill="#E35F59"/>
<path d="M63.248 39.8301V28.5801H70.8781V30.7901H65.898V33.1001H70.488V35.3101H65.898V37.6201H70.8781V39.8301H63.248Z" fill="#E35F59"/>
<path d="M72.1777 30.7901V28.5801H81.4277V30.7901H78.1077V39.8301H75.4977V30.7901H72.1777Z" fill="#E35F59"/>
<path d="M82.3682 30.7901V28.5801H91.6182V30.7901H88.2982V39.8301H85.6882V30.7901H82.3682Z" fill="#E35F59"/>
<path d="M92.9082 39.8301V28.5801H100.538V30.7901H95.5582V33.1001H100.148V35.3101H95.5582V37.6201H100.538V39.8301H92.9082Z" fill="#E35F59"/>
<path d="M102.198 39.8301V28.5801H106.718C107.538 28.5801 108.248 28.7301 108.838 29.0301C109.438 29.3301 109.898 29.7601 110.218 30.3301C110.538 30.9001 110.708 31.5601 110.708 32.3301C110.708 33.1001 110.538 33.7701 110.208 34.3201C109.878 34.8601 109.408 35.2801 108.798 35.5601C108.188 35.8401 107.468 35.9901 106.638 35.9901H103.778V33.8501H106.148C106.548 33.8501 106.878 33.8001 107.148 33.6901C107.418 33.5801 107.618 33.4201 107.758 33.1901C107.898 32.9601 107.968 32.6801 107.968 32.3401C107.968 32.0001 107.898 31.7001 107.758 31.4701C107.618 31.2401 107.418 31.0701 107.148 30.9501C106.878 30.8301 106.548 30.7801 106.148 30.7801H104.848V39.8401H102.208L102.198 39.8301ZM108.358 34.6901L111.078 39.8301H108.198L105.528 34.6901H108.358Z" fill="#E35F59"/>
<path d="M116.67 22H25.6699V24H116.67V22Z" fill="#E35F59"/>
<path d="M116.67 45H25.6699V47H116.67V45Z" fill="#E35F59"/>
</svg>
