<?xml version="1.0" encoding="UTF-8"?><svg id="a" xmlns="http://www.w3.org/2000/svg" width="144" height="69" viewBox="0 0 144 69"><defs><style>.b{fill:#203e68;}</style></defs><path class="b" d="M127.93,69H17.07l-.16-1.32c-.78-6.59-7.31-11.89-15.55-12.59l-1.37-.12V13.04l1.37-.12c7.82-.67,14.15-5.48,15.39-11.71l.24-1.21H127l.24,1.21c1.24,6.23,7.57,11.04,15.39,11.71l1.37,.12V55.03l-1.31,.17c-7.86,1.02-13.87,6.15-14.61,12.48l-.16,1.32Zm-108.25-3H125.32c1.44-6.71,7.62-12.08,15.68-13.57V15.75c-8.02-1.15-14.5-6.18-16.41-12.75H19.41c-1.91,6.57-8.39,11.61-16.41,12.75V52.25c8.46,1.21,15.17,6.75,16.68,13.75Z"/><g><path class="b" d="M31.83,39.83v-11.25h4.56c.82,0,1.51,.12,2.06,.36,.55,.24,.97,.57,1.25,1,.28,.43,.42,.93,.42,1.49,0,.43-.09,.81-.26,1.15-.17,.33-.41,.61-.72,.83-.31,.22-.66,.37-1.06,.46v.11c.44,.02,.85,.15,1.23,.37,.38,.22,.68,.53,.91,.93,.23,.4,.34,.87,.34,1.41,0,.6-.15,1.14-.45,1.62s-.73,.85-1.3,1.12c-.57,.27-1.25,.41-2.06,.41h-4.91Zm2.64-6.63h1.46c.29,0,.54-.05,.77-.15,.22-.1,.4-.24,.53-.43,.13-.19,.19-.41,.19-.68,0-.38-.13-.67-.39-.89-.26-.22-.61-.32-1.05-.32h-1.51v2.47Zm0,4.43h1.63c.57,0,1-.11,1.27-.33,.27-.22,.41-.54,.41-.93,0-.29-.07-.54-.2-.75s-.32-.37-.56-.49-.53-.17-.87-.17h-1.68v2.68Z"/><path class="b" d="M44.47,28.57v11.25h-2.64v-11.25h2.64Z"/><path class="b" d="M46.12,39.83v-11.25h2.64v9.04h4.55v2.21h-7.2Z"/><path class="b" d="M54.69,39.83v-11.25h2.64v9.04h4.55v2.21h-7.2Z"/><path class="b" d="M63.25,39.83v-11.25h7.63v2.21h-4.98v2.31h4.59v2.21h-4.59v2.31h4.98v2.21h-7.63Z"/><path class="b" d="M72.18,30.78v-2.21h9.25v2.21h-3.32v9.04h-2.61v-9.04h-3.32Z"/><path class="b" d="M82.37,30.78v-2.21h9.25v2.21h-3.32v9.04h-2.61v-9.04h-3.32Z"/><path class="b" d="M92.91,39.83v-11.25h7.63v2.21h-4.98v2.31h4.59v2.21h-4.59v2.31h4.98v2.21h-7.63Z"/><path class="b" d="M102.2,39.83v-11.25h4.52c.82,0,1.53,.15,2.12,.45,.6,.3,1.06,.73,1.38,1.3s.49,1.23,.49,2-.17,1.44-.5,1.99c-.33,.54-.8,.96-1.41,1.24-.61,.28-1.33,.43-2.16,.43h-2.86v-2.14h2.37c.4,0,.73-.05,1-.16,.27-.11,.47-.27,.61-.5s.21-.51,.21-.85-.07-.64-.21-.87c-.14-.23-.34-.4-.61-.52s-.6-.17-1-.17h-1.3v9.06h-2.64Zm6.16-5.14l2.72,5.14h-2.88l-2.67-5.14h2.83Z"/></g><rect class="b" x="25.67" y="22" width="91" height="2"/><rect class="b" x="25.67" y="45" width="91" height="2"/></svg>