<svg width="36" height="36" viewBox="0 0 36 36" fill="none" xmlns="http://www.w3.org/2000/svg">
<path fill-rule="evenodd" clip-rule="evenodd" d="M17.6257 23.5058C16.8534 23.5058 16.0886 23.3537 15.3751 23.0582C14.6616 22.7626 14.0133 22.3295 13.4672 21.7834C12.9212 21.2373 12.488 20.589 12.1924 19.8755C11.8969 19.162 11.7448 18.3972 11.7448 17.625C11.7448 16.8527 11.8969 16.0879 12.1924 15.3744C12.488 14.6609 12.9212 14.0126 13.4672 13.4665C14.0133 12.9205 14.6616 12.4873 15.3751 12.1917C16.0886 11.8962 16.8534 11.7441 17.6257 11.7441C19.1854 11.7441 20.6812 12.3637 21.7841 13.4665C22.8869 14.5694 23.5065 16.0652 23.5065 17.625C23.5065 19.1847 22.8869 20.6805 21.7841 21.7834C20.6812 22.8862 19.1854 23.5058 17.6257 23.5058V23.5058ZM17.6257 8.5657C15.223 8.5657 12.9187 9.52016 11.2198 11.2191C9.52086 12.918 8.56641 15.2223 8.56641 17.625C8.56641 20.0276 9.52086 22.3319 11.2198 24.0308C12.9187 25.7298 15.223 26.6842 17.6257 26.6842C20.0283 26.6842 22.3326 25.7298 24.0315 24.0308C25.7304 22.3319 26.6849 20.0276 26.6849 17.625C26.6849 15.2223 25.7304 12.918 24.0315 11.2191C22.3326 9.52016 20.0283 8.5657 17.6257 8.5657V8.5657ZM29.3204 8.4012C29.3204 8.96915 29.0948 9.51383 28.6932 9.91543C28.2916 10.317 27.7469 10.5426 27.179 10.5426C26.611 10.5426 26.0664 10.317 25.6648 9.91543C25.2632 9.51383 25.0376 8.96915 25.0376 8.4012C25.0376 7.83326 25.2632 7.28858 25.6648 6.88698C26.0664 6.48538 26.611 6.25977 27.179 6.25977C27.7469 6.25977 28.2916 6.48538 28.6932 6.88698C29.0948 7.28858 29.3204 7.83326 29.3204 8.4012" fill="#F6F56C"/>
<path fill-rule="evenodd" clip-rule="evenodd" d="M17.625 0C12.838 0 12.2388 0.019975 10.3588 0.10575C8.48232 0.191525 7.2004 0.489975 6.07945 0.9259C4.90445 1.3677 3.83872 2.06095 2.95747 2.95865C2.06121 3.83888 1.36753 4.90386 0.924725 6.07945C0.49115 7.2004 0.191525 8.4835 0.10575 10.36C0.02115 12.2388 0 12.8369 0 17.625C0 22.4131 0.019975 23.0112 0.10575 24.8912C0.191525 26.7677 0.489975 28.0496 0.9259 29.1705C1.3677 30.3455 2.06095 31.4113 2.95865 32.2925C3.83891 33.1888 4.90387 33.8824 6.07945 34.3253C7.2004 34.76 8.48232 35.0585 10.3588 35.1442C12.2388 35.23 12.838 35.25 17.625 35.25C22.4119 35.25 23.0112 35.23 24.8912 35.1442C26.7677 35.0585 28.0496 34.76 29.1705 34.3241C30.3455 33.8823 31.4113 33.189 32.2925 32.2913C33.1888 31.4111 33.8825 30.3461 34.3253 29.1705C34.76 28.0496 35.0585 26.7677 35.1442 24.8912C35.23 23.0112 35.25 22.4119 35.25 17.625C35.25 12.838 35.23 12.2388 35.1442 10.3588C35.0585 8.48232 34.76 7.2004 34.3241 6.07945C33.8816 4.90335 33.1879 3.83793 32.2913 2.95747C31.4111 2.06121 30.3461 1.36753 29.1705 0.924725C28.0496 0.49115 26.7665 0.191525 24.89 0.10575C23.0112 0.02115 22.4131 0 17.625 0ZM17.625 3.17602C22.3309 3.17602 22.889 3.19365 24.7478 3.27825C26.4657 3.35697 27.3986 3.6425 28.0202 3.88572C28.8427 4.20415 29.4302 4.5872 30.0471 5.2029C30.664 5.81977 31.0458 6.40727 31.3643 7.22977C31.6063 7.85135 31.893 8.7843 31.9717 10.5021C32.0563 12.361 32.074 12.9191 32.074 17.625C32.074 22.3309 32.0563 22.889 31.9717 24.7478C31.893 26.4657 31.6075 27.3986 31.3643 28.0202C31.0822 28.7858 30.6321 29.4784 30.0471 30.0471C29.4785 30.6322 28.7859 31.0823 28.0202 31.3643C27.3986 31.6063 26.4657 31.893 24.7478 31.9717C22.889 32.0563 22.332 32.074 17.625 32.074C12.9179 32.074 12.361 32.0563 10.5021 31.9717C8.7843 31.893 7.85135 31.6075 7.22977 31.3643C6.46421 31.0822 5.77161 30.6321 5.2029 30.0471C4.61796 29.4783 4.16788 28.7858 3.88572 28.0202C3.64367 27.3986 3.35697 26.4657 3.27825 24.7478C3.19365 22.889 3.17602 22.3309 3.17602 17.625C3.17602 12.9191 3.19365 12.361 3.27825 10.5021C3.35697 8.7843 3.6425 7.85135 3.88572 7.22977C4.20415 6.40727 4.5872 5.81977 5.2029 5.2029C5.77153 4.6178 6.46416 4.1677 7.22977 3.88572C7.85135 3.64367 8.7843 3.35697 10.5021 3.27825C12.361 3.19365 12.9191 3.17602 17.625 3.17602V3.17602Z" fill="#F6F56C"/>
</svg>
